<svg width="324" height="307" viewBox="0 0 324 307" fill="none" xmlns="http://www.w3.org/2000/svg">
<path fill-rule="evenodd" clip-rule="evenodd" d="M162.823 4.76491C189.602 8.46175 209.074 25.8865 232.348 37.957C258.707 51.6274 296.909 55.2089 307.997 80.0554C319.081 104.894 296.794 130.854 284.734 155.348C273.837 177.483 262.822 199.544 241.558 215.003C219.159 231.287 192.038 243.369 162.823 243.979C133.199 244.597 106.743 231.509 81.2879 218.347C53.2679 203.859 21.9262 190.316 8.87581 164.379C-4.72113 137.356 -1.5726 105.591 10.7211 78.1022C22.5961 51.55 46.429 30.0865 75.1228 16.2515C101.613 3.47886 132.893 0.63298 162.823 4.76491Z" fill="#EBEBEB"/>
<rect x="16.363" y="60" width="223.637" height="120.532" rx="9.99202" fill="white"/>
<path d="M76.2419 107.932V110.935H74.4855V102.411H77.8109C78.4511 102.411 79.0131 102.528 79.4971 102.762C79.985 102.996 80.3597 103.33 80.6212 103.763C80.8827 104.193 81.0135 104.682 81.0135 105.233C81.0135 106.068 80.7266 106.728 80.1528 107.212C79.583 107.692 78.7926 107.932 77.7817 107.932H76.2419ZM76.2419 106.509H77.8109C78.2754 106.509 78.6287 106.4 78.8706 106.181C79.1165 105.963 79.2395 105.65 79.2395 105.244C79.2395 104.827 79.1165 104.489 78.8706 104.232C78.6247 103.974 78.2852 103.841 77.8519 103.833H76.2419V106.509ZM85.7148 110.935C85.6367 110.783 85.5801 110.594 85.545 110.367C85.1352 110.824 84.6024 111.052 83.9467 111.052C83.3261 111.052 82.8109 110.873 82.401 110.514C81.9951 110.155 81.7921 109.702 81.7921 109.155C81.7921 108.484 82.04 107.969 82.5357 107.61C83.0353 107.251 83.7554 107.069 84.6961 107.065H85.4747V106.702C85.4747 106.409 85.3986 106.175 85.2464 106C85.0981 105.824 84.862 105.736 84.538 105.736C84.2531 105.736 84.0286 105.805 83.8647 105.941C83.7047 106.078 83.6247 106.265 83.6247 106.503H81.9327C81.9327 106.136 82.0458 105.797 82.2722 105.484C82.4986 105.172 82.8187 104.928 83.2324 104.753C83.6461 104.573 84.1106 104.483 84.6258 104.483C85.4064 104.483 86.0251 104.68 86.4818 105.075C86.9423 105.465 87.1726 106.015 87.1726 106.726V109.472C87.1765 110.073 87.2604 110.527 87.4244 110.836V110.935H85.7148ZM84.3155 109.758C84.5653 109.758 84.7956 109.704 85.0064 109.594C85.2171 109.481 85.3733 109.331 85.4747 109.144V108.055H84.8424C83.9955 108.055 83.5446 108.347 83.49 108.933L83.4841 109.032C83.4841 109.243 83.5583 109.417 83.7066 109.553C83.8549 109.69 84.0579 109.758 84.3155 109.758ZM91.9032 109.185C91.9032 108.978 91.7998 108.816 91.5929 108.699C91.3899 108.578 91.0621 108.47 90.6093 108.377C89.1027 108.061 88.3494 107.42 88.3494 106.456C88.3494 105.894 88.5816 105.426 89.0461 105.051C89.5145 104.673 90.1253 104.483 90.8786 104.483C91.6827 104.483 92.3247 104.673 92.8048 105.051C93.2888 105.43 93.5308 105.922 93.5308 106.527H91.8388C91.8388 106.285 91.7607 106.086 91.6046 105.929C91.4485 105.769 91.2045 105.689 90.8728 105.689C90.5879 105.689 90.3673 105.754 90.2112 105.883C90.0551 106.011 89.977 106.175 89.977 106.374C89.977 106.562 90.0648 106.714 90.2405 106.831C90.42 106.944 90.7206 107.044 91.1421 107.13C91.5636 107.212 91.9188 107.305 92.2077 107.411C93.1015 107.739 93.5484 108.306 93.5484 109.114C93.5484 109.692 93.3005 110.16 92.8048 110.519C92.3091 110.875 91.669 111.052 90.8845 111.052C90.3537 111.052 89.8814 110.959 89.4677 110.771C89.0578 110.58 88.7358 110.32 88.5016 109.993C88.2674 109.661 88.1503 109.304 88.1503 108.921H89.7545C89.7701 109.222 89.8814 109.452 90.0882 109.612C90.2951 109.772 90.5722 109.852 90.9196 109.852C91.2436 109.852 91.4875 109.792 91.6515 109.671C91.8193 109.546 91.9032 109.384 91.9032 109.185ZM98.0741 109.185C98.0741 108.978 97.9706 108.816 97.7638 108.699C97.5608 108.578 97.2329 108.47 96.7802 108.377C95.2736 108.061 94.5203 107.42 94.5203 106.456C94.5203 105.894 94.7525 105.426 95.217 105.051C95.6853 104.673 96.2962 104.483 97.0495 104.483C97.8535 104.483 98.4956 104.673 98.9757 105.051C99.4597 105.43 99.7017 105.922 99.7017 106.527H98.0097C98.0097 106.285 97.9316 106.086 97.7755 105.929C97.6193 105.769 97.3754 105.689 97.0436 105.689C96.7587 105.689 96.5382 105.754 96.3821 105.883C96.2259 106.011 96.1479 106.175 96.1479 106.374C96.1479 106.562 96.2357 106.714 96.4113 106.831C96.5909 106.944 96.8914 107.044 97.3129 107.13C97.7345 107.212 98.0897 107.305 98.3785 107.411C99.2723 107.739 99.7192 108.306 99.7192 109.114C99.7192 109.692 99.4714 110.16 98.9757 110.519C98.48 110.875 97.8399 111.052 97.0553 111.052C96.5245 111.052 96.0522 110.959 95.6385 110.771C95.2287 110.58 94.9067 110.32 94.6725 109.993C94.4383 109.661 94.3212 109.304 94.3212 108.921H95.9254C95.941 109.222 96.0522 109.452 96.2591 109.612C96.466 109.772 96.7431 109.852 97.0905 109.852C97.4144 109.852 97.6584 109.792 97.8223 109.671C97.9901 109.546 98.0741 109.384 98.0741 109.185ZM106.323 108.634L107.155 104.6H108.788L107.172 110.935H105.755L104.555 106.948L103.355 110.935H101.944L100.328 104.6H101.962L102.787 108.628L103.946 104.6H105.17L106.323 108.634ZM109.368 107.709C109.368 107.081 109.489 106.521 109.731 106.029C109.973 105.537 110.32 105.157 110.773 104.887C111.23 104.618 111.758 104.483 112.36 104.483C113.214 104.483 113.911 104.745 114.45 105.268C114.992 105.791 115.295 106.501 115.357 107.399L115.369 107.832C115.369 108.804 115.098 109.585 114.555 110.174C114.013 110.76 113.285 111.052 112.371 111.052C111.458 111.052 110.728 110.76 110.182 110.174C109.639 109.589 109.368 108.792 109.368 107.785V107.709ZM111.06 107.832C111.06 108.433 111.173 108.894 111.399 109.214C111.626 109.53 111.95 109.688 112.371 109.688C112.781 109.688 113.101 109.532 113.331 109.22C113.562 108.904 113.677 108.4 113.677 107.709C113.677 107.12 113.562 106.663 113.331 106.339C113.101 106.015 112.777 105.853 112.36 105.853C111.946 105.853 111.626 106.015 111.399 106.339C111.173 106.659 111.06 107.157 111.06 107.832ZM119.971 106.187C119.74 106.156 119.537 106.14 119.362 106.14C118.722 106.14 118.302 106.357 118.103 106.79V110.935H116.411V104.6H118.009L118.056 105.356C118.396 104.774 118.866 104.483 119.467 104.483C119.654 104.483 119.83 104.509 119.994 104.559L119.971 106.187ZM120.41 107.721C120.41 106.733 120.63 105.947 121.071 105.362C121.516 104.776 122.123 104.483 122.892 104.483C123.509 104.483 124.018 104.714 124.42 105.174V101.942H126.118V110.935H124.59L124.508 110.262C124.086 110.789 123.544 111.052 122.88 111.052C122.135 111.052 121.536 110.76 121.083 110.174C120.634 109.585 120.41 108.767 120.41 107.721ZM122.102 107.844C122.102 108.437 122.205 108.892 122.412 109.208C122.619 109.524 122.919 109.682 123.314 109.682C123.837 109.682 124.206 109.462 124.42 109.021V106.521C124.209 106.08 123.844 105.859 123.325 105.859C122.51 105.859 122.102 106.521 122.102 107.844ZM127.511 110.104C127.511 109.834 127.601 109.616 127.781 109.448C127.964 109.28 128.193 109.196 128.466 109.196C128.743 109.196 128.971 109.28 129.151 109.448C129.334 109.616 129.426 109.834 129.426 110.104C129.426 110.369 129.336 110.586 129.157 110.754C128.977 110.918 128.747 111 128.466 111C128.189 111 127.96 110.918 127.781 110.754C127.601 110.586 127.511 110.369 127.511 110.104ZM127.511 105.309C127.511 105.039 127.601 104.821 127.781 104.653C127.964 104.485 128.193 104.401 128.466 104.401C128.743 104.401 128.971 104.485 129.151 104.653C129.334 104.821 129.426 105.039 129.426 105.309C129.426 105.574 129.336 105.791 129.157 105.959C128.977 106.123 128.747 106.205 128.466 106.205C128.189 106.205 127.96 106.123 127.781 105.959C127.601 105.791 127.511 105.574 127.511 105.309Z" fill="#515151"/>
<path fill-rule="evenodd" clip-rule="evenodd" d="M204.522 71.9205C202.11 72.5691 199.713 73.2746 197.333 74.0363C197.118 74.1028 196.926 74.2287 196.779 74.3995C196.632 74.5703 196.536 74.7791 196.502 75.0019C195.096 85.2827 198.341 92.7856 202.211 97.7268C204.153 100.207 206.256 102.043 208.007 103.248C208.886 103.85 209.659 104.288 210.268 104.568C210.574 104.707 210.822 104.802 211.012 104.858C211.096 104.885 211.181 104.906 211.268 104.921C211.287 104.918 211.368 104.908 211.524 104.86C211.714 104.802 211.962 104.707 212.268 104.568C212.875 104.288 213.653 103.85 214.529 103.248C216.725 101.707 218.679 99.8461 220.325 97.7268C224.195 92.7856 227.44 85.2827 226.034 75.0019C226 74.7791 225.904 74.5703 225.757 74.3995C225.61 74.2287 225.418 74.1028 225.203 74.0363C223.551 73.5087 220.765 72.6487 218.014 71.9205C215.202 71.1792 212.614 70.6252 211.268 70.6252C209.923 70.6252 207.337 71.1792 204.522 71.9205ZM203.847 69.3721C206.599 68.644 209.519 67.9871 211.268 67.9871C213.015 67.9871 215.938 68.644 218.689 69.3721C221.143 70.031 223.582 70.7479 226.002 71.5222C227.395 71.9654 228.445 73.1657 228.648 74.6457C230.16 85.718 226.654 93.9226 222.404 99.3519C220.593 101.682 218.442 103.727 216.025 105.42C215.184 106.009 214.295 106.526 213.368 106.966C212.656 107.293 211.896 107.559 211.268 107.559C210.64 107.559 209.88 107.293 209.168 106.966C208.241 106.526 207.352 106.009 206.511 105.42C204.095 103.727 201.945 101.682 200.135 99.3519C195.88 93.9226 192.376 85.718 193.888 74.6457C193.989 73.9283 194.291 73.2542 194.759 72.7015C195.228 72.1487 195.843 71.7398 196.534 71.5222C198.954 70.7479 201.393 70.031 203.847 69.3721Z" fill="#BBBBBB"/>
<path d="M215.225 83.816C215.225 84.8655 214.809 85.872 214.066 86.6142C213.324 87.3563 212.318 87.7732 211.268 87.7732C210.219 87.7732 209.212 87.3563 208.47 86.6142C207.728 85.872 207.311 84.8655 207.311 83.816C207.311 82.7665 207.728 81.7599 208.47 81.0178C209.212 80.2757 210.219 79.8588 211.268 79.8588C212.318 79.8588 213.324 80.2757 214.066 81.0178C214.809 81.7599 215.225 82.7665 215.225 83.816Z" fill="#BBBBBB"/>
<path d="M209.714 87.8628C209.766 87.5553 209.925 87.276 210.163 87.0747C210.401 86.8733 210.703 86.7627 211.015 86.7627H211.426C211.737 86.763 212.037 86.8727 212.274 87.0725C212.512 87.2722 212.671 87.5493 212.724 87.8549L213.64 93.1312C213.672 93.3206 213.663 93.515 213.613 93.7005C213.563 93.8861 213.472 94.0584 213.349 94.2054C213.225 94.3525 213.07 94.4706 212.896 94.5516C212.721 94.6327 212.531 94.6746 212.339 94.6745H210.136C209.945 94.6744 209.756 94.6326 209.582 94.5521C209.408 94.4715 209.254 94.3541 209.13 94.208C209.007 94.0619 208.916 93.8906 208.865 93.706C208.814 93.5214 208.804 93.328 208.836 93.1391L209.714 87.8628Z" fill="#BBBBBB"/>
<g filter="url(#filter0_d)">
<rect x="72.9985" y="122.444" width="111.092" height="23.9611" fill="white"/>
</g>
<path d="M83.3649 134.313L80.5052 133.503L81.0425 131.854L83.8749 132.993L83.6927 129.814H85.4778L85.2956 133.057L88.0551 131.936L88.5925 133.603L85.6781 134.414L87.5907 136.836L86.1426 137.865L84.4851 135.206L82.8458 137.774L81.3977 136.791L83.3649 134.313Z" fill="#BBBBBB"/>
<path d="M97.1608 134.313L94.3011 133.503L94.8384 131.854L97.6708 132.993L97.4886 129.814H99.2737L99.0915 133.057L101.851 131.936L102.388 133.603L99.474 134.414L101.387 136.836L99.9385 137.865L98.281 135.206L96.6417 137.774L95.1936 136.791L97.1608 134.313Z" fill="#BBBBBB"/>
<path d="M111.682 134.313L108.823 133.503L109.36 131.854L112.193 132.993L112.01 129.814H113.795L113.613 133.057L116.373 131.936L116.91 133.603L113.996 134.414L115.908 136.836L114.46 137.865L112.803 135.206L111.163 137.774L109.715 136.791L111.682 134.313Z" fill="#BBBBBB"/>
<path d="M126.204 134.313L123.345 133.503L123.882 131.854L126.714 132.993L126.532 129.814H128.317L128.135 133.057L130.895 131.936L131.432 133.603L128.518 134.414L130.43 136.836L128.982 137.865L127.325 135.206L125.685 137.774L124.237 136.791L126.204 134.313Z" fill="#BBBBBB"/>
<path d="M140.726 134.313L137.867 133.503L138.404 131.854L141.236 132.993L141.054 129.814H142.839L142.657 133.057L145.417 131.936L145.954 133.603L143.04 134.414L144.952 136.836L143.504 137.865L141.847 135.206L140.207 137.774L138.759 136.791L140.726 134.313Z" fill="#BBBBBB"/>
<path d="M16 71.9805V141.686V163.831C16.4841 155.118 13.4587 129.778 33.7893 128.616C54.1199 127.454 57.432 107.226 59.2026 98.1199C61.7439 85.0502 68.1336 84.6145 84.979 82.8719C101.824 81.1293 105.31 67.1399 104.947 60.363C83.2847 60.242 37.565 60.0726 27.9806 60.363C18.3961 60.6534 16 68.229 16 71.9805Z" fill="url(#paint0_linear)"/>
<path d="M281.729 167.307L278.221 170.77L282.882 182.93L289.384 169.449L300.034 108.244L283.655 107.787L281.729 167.307Z" fill="#9F616A"/>
<path d="M255.039 295.406H246.167L239.266 217.033H256.518L255.039 295.406Z" fill="#9F616A"/>
<path d="M288.557 295.406H279.685L272.784 217.033H290.036L288.557 295.406Z" fill="#9F616A"/>
<path d="M281.686 305.629L268.732 305.56C267.577 304.983 266.677 303.998 266.205 302.796C265.733 301.594 265.723 300.26 266.176 299.051C266.498 298.192 267.041 297.434 267.749 296.851C268.457 296.268 269.306 295.882 270.21 295.731L272.657 295.323L274.789 292.61C275.396 291.82 276.273 291.283 277.252 291.101C278.231 290.919 279.242 291.105 280.092 291.624C282.137 292.922 284.974 293.354 288.472 293.064L291.194 299.712C291.733 303.308 289.271 305.68 285.679 306.247C284.316 306.463 282.92 306.246 281.686 305.629Z" fill="#2F2E41"/>
<path d="M248.168 305.629L235.214 305.56C234.059 304.983 233.159 303.998 232.687 302.796C232.215 301.594 232.205 300.26 232.658 299.051C232.98 298.192 233.523 297.433 234.231 296.851C234.939 296.268 235.788 295.882 236.692 295.731L239.139 295.323L241.51 292.306C242.085 291.58 242.913 291.098 243.829 290.956C244.744 290.815 245.679 291.023 246.447 291.541C248.501 292.903 251.383 293.36 254.954 293.064L257.676 299.712C258.215 303.308 255.753 305.68 252.161 306.247C250.798 306.462 249.402 306.246 248.168 305.629Z" fill="#2F2E41"/>
<path d="M257.504 66.2019C264.854 66.2019 270.812 60.2434 270.812 52.8933C270.812 45.5432 264.854 39.5847 257.504 39.5847C250.154 39.5847 244.195 45.5432 244.195 52.8933C244.195 60.2434 250.154 66.2019 257.504 66.2019Z" fill="#9F616A"/>
<path d="M276.727 78.5245L255.039 80.0032C255.116 72.9846 254.81 66.6277 253.068 62.7514L268.348 57.8223C268.495 64.0022 271.736 71.0252 276.727 78.5245Z" fill="#9F616A"/>
<path d="M290.036 174.642L234.337 170.206C241.768 145.432 239.443 112.992 231.872 88.6708C231.872 85.8307 232.734 83.0574 234.344 80.7174C235.953 78.3774 238.235 76.5808 240.887 75.5651L255.039 70.1451L272.784 72.1168L287.747 79.5982C290.055 80.7523 291.989 82.5365 293.325 84.7443C294.661 86.9522 295.345 89.4933 295.296 92.0734C289.672 114.566 288.995 143.487 290.036 174.642Z" fill="#F36D5C"/>
<path d="M248.138 114.014L223 109.578L225.164 92.8089C225.69 88.727 227.416 84.8931 230.122 81.7923C232.829 78.6915 236.394 76.4632 240.367 75.3894L245.181 74.0884L248.138 114.014Z" fill="#F36D5C"/>
<path d="M233.351 169.713L236.309 173.657L231.873 185.979L225.465 170.699L223.986 108.592L240.252 110.564L233.351 169.713Z" fill="#9F616A"/>
<path d="M275.741 115L300.88 110.564L298.716 93.7947C298.189 89.7128 296.463 85.8789 293.757 82.7781C291.051 79.6773 287.485 77.449 283.512 76.3752L278.699 75.0742L275.741 115Z" fill="#F36D5C"/>
<path d="M291.515 219.497L270.892 220.483L264.897 191.401L257.618 218.511L235.816 219.004L231.457 183.975C231.121 181.271 231.334 178.527 232.082 175.907C232.831 173.287 234.101 170.845 235.816 168.727L290.036 171.192L291.515 219.497Z" fill="#2F2E41"/>
<path d="M258.736 67.4341L268.688 65.5495L274.609 55.4352C276.045 52.981 276.667 50.1344 276.384 47.3047C276.101 44.475 274.928 41.8079 273.034 39.6866C271.558 38.0335 269.697 36.7708 267.615 36.0109C265.533 35.251 263.296 35.0173 261.102 35.3307L248.204 37.1733C247.092 37.3321 246.022 37.7095 245.057 38.2836C244.091 38.8577 243.248 39.6172 242.577 40.5183C241.906 41.4194 241.42 42.4444 241.147 43.5341C240.874 44.6239 240.819 45.757 240.986 46.868L249.674 48.3461L258.736 67.4341Z" fill="#2F2E41"/>
<path d="M252.821 59.5476C254.182 59.5476 255.286 58.2235 255.286 56.5902C255.286 54.9568 254.182 53.6327 252.821 53.6327C251.46 53.6327 250.356 54.9568 250.356 56.5902C250.356 58.2235 251.46 59.5476 252.821 59.5476Z" fill="#9F616A"/>
<path d="M323.805 306.385H192V305.308H324L323.805 306.385Z" fill="#3F3D56"/>
<path d="M279.666 2.92437C276.208 1.6013 273.421 2.17181 270.689 4.04477C270.193 4.38453 270.049 5.05533 270.364 5.56552L271.687 7.70829C272.005 8.22353 272.675 8.38791 273.197 8.07843C274.807 7.12388 275.913 6.64322 277.609 7.29179C278.941 7.80172 280.26 9.29668 279.761 10.5988C279.385 11.5832 278.385 11.7802 276.784 12.02C274.918 12.2997 272.474 12.6015 271.442 15.3003L271.278 15.7276C271.057 16.3061 271.343 16.9532 271.917 17.173L275.057 18.3742C275.631 18.5939 276.276 18.303 276.498 17.7245L276.594 17.4725C277.31 15.6017 282.767 17.6002 284.704 12.5376C286.163 8.72517 283.344 4.33134 279.666 2.92437ZM272.995 19.0595C271.34 18.4263 269.475 19.2676 268.837 20.9349C268.199 22.602 269.027 24.4735 270.682 25.1067C272.337 25.7398 274.202 24.8985 274.84 23.2313C275.478 21.564 274.65 19.6926 272.995 19.0595Z" fill="#DF9B9B"/>
<defs>
<filter id="filter0_d" x="66.3372" y="117.781" width="124.415" height="37.2838" filterUnits="userSpaceOnUse" color-interpolation-filters="sRGB">
<feFlood flood-opacity="0" result="BackgroundImageFix"/>
<feColorMatrix in="SourceAlpha" type="matrix" values="0 0 0 0 0 0 0 0 0 0 0 0 0 0 0 0 0 0 127 0"/>
<feOffset dy="1.9984"/>
<feGaussianBlur stdDeviation="3.33067"/>
<feColorMatrix type="matrix" values="0 0 0 0 0 0 0 0 0 0 0 0 0 0 0 0 0 0 0.14 0"/>
<feBlend mode="normal" in2="BackgroundImageFix" result="effect1_dropShadow"/>
<feBlend mode="normal" in="SourceGraphic" in2="effect1_dropShadow" result="shape"/>
</filter>
<linearGradient id="paint0_linear" x1="16" y1="65.3841" x2="107.91" y2="71.3764" gradientUnits="userSpaceOnUse">
<stop stop-color="#F46A5A"/>
<stop offset="1" stop-color="#ED916D"/>
</linearGradient>
</defs>
</svg>
